# xmcd
#
# Track frame offsets:
#	150
#	15170
#	34557
#	55112
#	68865
#	86102
#	101327
#	112205
#	137527
#	152955
#	168530
#	194750
#	213922
#	230962
#	245930
#	259660
#
# Disc length: 3654 seconds
#
# Revision: 0
# Processed by: cddbd v1.4PL0 Copyright (c) Steve Scherf et al.
# Submitted via: audiograbber 1.82.02
#
DISCID=e60e4410
DTITLE=Various Artist - Line Dance Session
DYEAR=2000
DGENRE=Country
TTITLE0=The Bayou Boys - Down at the twist and shout
TTITLE1=George Moody and The country Squires - the Breeze (they call me)
TTITLE2=memphis Roots - grazy mama
TTITLE3=blueberry hill - honky tonk blues
TTITLE4=George Moody and The country Squires - save the last dance for me
TTITLE5=lone star - 5-6-7-8
TTITLE6=memphis roots - I should've asked her faster
TTITLE7=George Moody and The country Squires - me and bobby mcgee
TTITLE8=memphis roots - cannibals
TTITLE9=george moody - folsom prison blues
TTITLE10=blueberry hill - big river
TTITLE11=memphis roots - a fool for you
TTITLE12=George Moody and The country Squires - gulf of mexico
TTITLE13=memphis roots - shouth of the border
TTITLE14=blueberry hill - love's got a hold on tou
TTITLE15=blueberry hill - smoky places
EXTD=
EXTT0=
EXTT1=
EXTT2=
EXTT3=
EXTT4=
EXTT5=
EXTT6=
EXTT7=
EXTT8=
EXTT9=
EXTT10=
EXTT11=
EXTT12=
EXTT13=
EXTT14=
EXTT15=
PLAYORDER=
